{
	"asset":{
		"version":"2.0"
	},
	"scenes":[{
		"nodes":[0]
	}],
	"nodes":[{
		"translation":[0,
		0,
		0],
		"rotation":[0,
		0,
		0,
		1],
		"scale":[1,
		1,
		-1],
		"name":"Girl_Shirt",
		"children":[1,
		2,
		3,
		4,
		5]
	},
	{
		"translation":[0,
		24.429,
		-4.039],
		"rotation":[0.031,
		-0.013,
		0.031,
		-0.999],
		"scale":[1,
		1,
		1],
		"name":"Logo",
		"mesh":0
	},
	{
		"name":"Outline",
		"mesh":1
	},
	{
		"name":"Body",
		"mesh":2
	},
	{
		"name":"Arms",
		"mesh":3
	},
	{
		"name":"Bottom",
		"mesh":4
	}],
	"meshes":[{
		"primitives":[{
			"attributes":{
				"POSITION":1,
				"NORMAL":2,
				"TEXCOORD_0":3
			},
			"indices":0,
			"material":0
		}]
	},
	{
		"primitives":[{
			"attributes":{
				"POSITION":5,
				"NORMAL":6,
				"TEXCOORD_0":7
			},
			"indices":4,
			"material":1
		}]
	},
	{
		"primitives":[{
			"attributes":{
				"POSITION":9,
				"NORMAL":10,
				"TEXCOORD_0":11
			},
			"indices":8,
			"material":2
		}]
	},
	{
		"primitives":[{
			"attributes":{
				"POSITION":13,
				"NORMAL":14,
				"TEXCOORD_0":15
			},
			"indices":12,
			"material":3
		}]
	},
	{
		"primitives":[{
			"attributes":{
				"POSITION":17,
				"NORMAL":18,
				"TEXCOORD_0":19
			},
			"indices":16,
			"material":4
		}]
	}],
	"accessors":[{
		"bufferView":0,
		"type":"SCALAR",
		"componentType":5123,
		"count":6372,
		"byteOffset":0,
		"min":[0],
		"max":[3441]
	},
	{
		"bufferView":1,
		"type":"VEC3",
		"componentType":5126,
		"count":3442,
		"byteOffset":0,
		"min":[-4.124,
		-3.793,
		-0.137],
		"max":[4.124,
		3.793,
		0.137]
	},
	{
		"bufferView":1,
		"type":"VEC3",
		"componentType":5126,
		"count":3442,
		"byteOffset":12,
		"min":[-1,
		-1,
		-1],
		"max":[1,
		0.999,
		1]
	},
	{
		"bufferView":1,
		"type":"VEC2",
		"componentType":5126,
		"count":3442,
		"byteOffset":24,
		"min":[0,
		0],
		"max":[1939.957,
		1]
	},
	{
		"bufferView":2,
		"type":"SCALAR",
		"componentType":5123,
		"count":20286,
		"byteOffset":0,
		"min":[0],
		"max":[6738]
	},
	{
		"bufferView":3,
		"type":"VEC3",
		"componentType":5126,
		"count":6739,
		"byteOffset":0,
		"min":[-36.758,
		-37.836,
		-8.929],
		"max":[37.033,
		45.55,
		5.948]
	},
	{
		"bufferView":3,
		"type":"VEC3",
		"componentType":5126,
		"count":6739,
		"byteOffset":12,
		"min":[-1,
		-1,
		-1],
		"max":[0.997,
		1,
		1]
	},
	{
		"bufferView":3,
		"type":"VEC2",
		"componentType":5126,
		"count":6739,
		"byteOffset":24,
		"min":[0.042,
		0.013],
		"max":[0.973,
		0.975]
	},
	{
		"bufferView":4,
		"type":"SCALAR",
		"componentType":5123,
		"count":49596,
		"byteOffset":0,
		"min":[0],
		"max":[9037]
	},
	{
		"bufferView":5,
		"type":"VEC3",
		"componentType":5126,
		"count":9038,
		"byteOffset":0,
		"min":[-35.02,
		-36.072,
		-8.602],
		"max":[35.371,
		44.254,
		4.757]
	},
	{
		"bufferView":5,
		"type":"VEC3",
		"componentType":5126,
		"count":9038,
		"byteOffset":12,
		"min":[-1,
		-0.601,
		-1],
		"max":[0.999,
		0.959,
		1]
	},
	{
		"bufferView":5,
		"type":"VEC2",
		"componentType":5126,
		"count":9038,
		"byteOffset":24,
		"min":[0.092,
		0.099],
		"max":[0.81,
		0.906]
	},
	{
		"bufferView":6,
		"type":"SCALAR",
		"componentType":5123,
		"count":7920,
		"byteOffset":0,
		"min":[0],
		"max":[1756]
	},
	{
		"bufferView":7,
		"type":"VEC3",
		"componentType":5126,
		"count":1757,
		"byteOffset":0,
		"min":[-42.933,
		10.716,
		-1.407],
		"max":[42.933,
		32.599,
		9.933]
	},
	{
		"bufferView":7,
		"type":"VEC3",
		"componentType":5126,
		"count":1757,
		"byteOffset":12,
		"min":[-0.931,
		-0.967,
		-1],
		"max":[0.929,
		0.966,
		1]
	},
	{
		"bufferView":7,
		"type":"VEC2",
		"componentType":5126,
		"count":1757,
		"byteOffset":24,
		"min":[-0.528,
		0.156],
		"max":[2.048,
		0.98]
	},
	{
		"bufferView":8,
		"type":"SCALAR",
		"componentType":5123,
		"count":12048,
		"byteOffset":0,
		"min":[0],
		"max":[2515]
	},
	{
		"bufferView":9,
		"type":"VEC3",
		"componentType":5126,
		"count":2516,
		"byteOffset":0,
		"min":[-31.163,
		-45.55,
		-9.933],
		"max":[30.901,
		-34.258,
		2.535]
	},
	{
		"bufferView":9,
		"type":"VEC3",
		"componentType":5126,
		"count":2516,
		"byteOffset":12,
		"min":[-0.991,
		-1,
		-1],
		"max":[0.99,
		1,
		1]
	},
	{
		"bufferView":9,
		"type":"VEC2",
		"componentType":5126,
		"count":2516,
		"byteOffset":24,
		"min":[-1.623,
		0.159],
		"max":[5.487,
		0.982]
	}],
	"bufferViews":[{
		"buffer":0,
		"byteOffset":0,
		"byteLength":12744,
		"target":34963
	},
	{
		"buffer":0,
		"byteOffset":12744,
		"byteLength":110144,
		"target":34962,
		"byteStride":32
	},
	{
		"buffer":1,
		"byteOffset":0,
		"byteLength":40572,
		"target":34963
	},
	{
		"buffer":1,
		"byteOffset":40572,
		"byteLength":215648,
		"target":34962,
		"byteStride":32
	},
	{
		"buffer":2,
		"byteOffset":0,
		"byteLength":99192,
		"target":34963
	},
	{
		"buffer":2,
		"byteOffset":99192,
		"byteLength":289216,
		"target":34962,
		"byteStride":32
	},
	{
		"buffer":3,
		"byteOffset":0,
		"byteLength":15840,
		"target":34963
	},
	{
		"buffer":3,
		"byteOffset":15840,
		"byteLength":56224,
		"target":34962,
		"byteStride":32
	},
	{
		"buffer":4,
		"byteOffset":0,
		"byteLength":24096,
		"target":34963
	},
	{
		"buffer":4,
		"byteOffset":24096,
		"byteLength":80512,
		"target":34962,
		"byteStride":32
	}],
	"buffers":[{
		"byteLength":122888,
		"uri":"data:application/octet-stream;base64,"
	},
	{
		"byteLength":256220,
		"uri":"data:application/octet-stream;base64,"
	},
	{
		"byteLength":388408,
		"uri":"data:application/octet-stream;base64,"
	},
	{
		"byteLength":72064,
		"uri":"data:application/octet-stream;base64,"
	},
	{
		"byteLength":104608,
		"uri":"data:application/octet-stream;base64,"
	}],
	"materials":[{
		"pbrMetallicRoughness":{
			"baseColorFactor":[1,
			1,
			1,
			1],
			"metallicFactor":1,
			"roughnessFactor":1
		},
		"emissiveFactor":[0,
		0,
		0],
		"alphaMode":"OPAQUE",
		"doubleSided":true
	},
	{
		"pbrMetallicRoughness":{
			"baseColorFactor":[1,
			1,
			1,
			1],
			"metallicFactor":1,
			"roughnessFactor":1
		},
		"emissiveFactor":[0,
		0,
		0],
		"alphaMode":"OPAQUE",
		"doubleSided":true
	},
	{
		"pbrMetallicRoughness":{
			"baseColorFactor":[1,
			1,
			1,
			1],
			"metallicFactor":1,
			"roughnessFactor":1
		},
		"emissiveFactor":[0,
		0,
		0],
		"alphaMode":"OPAQUE",
		"doubleSided":true
	},
	{
		"pbrMetallicRoughness":{
			"baseColorFactor":[1,
			1,
			1,
			1],
			"metallicFactor":1,
			"roughnessFactor":1
		},
		"emissiveFactor":[0,
		0,
		0],
		"alphaMode":"OPAQUE",
		"doubleSided":true
	},
	{
		"pbrMetallicRoughness":{
			"baseColorFactor":[1,
			1,
			1,
			1],
			"metallicFactor":1,
			"roughnessFactor":1
		},
		"emissiveFactor":[0,
		0,
		0],
		"alphaMode":"OPAQUE",
		"doubleSided":true
	}]
}